Coordinates
version=1
nRows=16
nColumns=36
inDegrees=yes

Units are S.I. units (second, meters, Newtons, ...)
If the header above contains a line with 'inDegrees', this indicates whether rotational values are in degrees (yes) or radians (no).

endheader
time	pelvis_tilt	pelvis_list	pelvis_rotation	pelvis_tx	pelvis_ty	pelvis_tz	hip_flexion_r	hip_adduction_r	hip_rotation_r	knee_angle_r	knee_angle_r_beta	ankle_angle_r	subtalar_angle_r	mtp_angle_r	hip_flexion_l	hip_adduction_l	hip_rotation_l	knee_angle_l	knee_angle_l_beta	ankle_angle_l	subtalar_angle_l	mtp_angle_l	lumbar_extension	lumbar_bending	lumbar_rotation	arm_flex_r	arm_add_r	arm_rot_r	elbow_flex_r	pro_sup_r	arm_flex_l	arm_add_l	arm_rot_l	elbow_flex_l	pro_sup_l
      1.28333330	     -2.19677325	     -0.63872154	      1.60074331	      0.03721695	      1.29934105	      0.36137116	      0.18301913	      0.38219783	     -1.05024832	      6.10687094	      0.10658500	     12.84716122	      3.71135402	     -7.49999984	     -1.24548658	     -0.33939826	     -0.03901227	      3.82649176	      0.06678488	      7.72831395	     -3.62310888	     -7.49999984	     -1.07001593	     -0.81739092	     -0.89053719	     -3.11003389	    -14.98549421	     23.43592937	     20.18983112	     93.64439811	      6.05481746	    -16.50121791	     36.26973476	     20.41657743	     94.89384282
      1.30000000	     -2.32909452	     -0.66074603	      1.47828044	      0.03756743	      1.29618757	      0.36072109	      0.52460946	      0.39454266	     -1.12262271	      6.37595091	      0.11128134	     12.89573749	      3.64662930	     -7.49999984	     -1.02528616	     -0.35607488	     -0.17250556	      4.00005102	      0.06981406	      7.80547928	     -3.53729650	     -7.49999984	     -1.30675383	     -0.81649638	     -0.78305511	     -2.79833789	    -14.94095634	     23.53625568	     19.72174768	     92.92528459	      6.33251880	    -16.21798950	     35.88750755	     19.86503499	     94.30340000
      1.31666670	     -2.34047574	     -0.66213004	      1.28150732	      0.03753242	      1.29600617	      0.36151926	      0.77687046	      0.37862757	     -1.05717112	      6.71550072	      0.11720760	     12.96470077	      3.53567277	     -7.49999984	     -0.98647081	     -0.34911959	     -0.27143425	      4.06152022	      0.07088690	      7.83806755	     -3.64213866	     -7.49999984	     -1.73117397	     -0.82112962	     -0.78382658	     -2.54180306	    -15.02461063	     23.55149269	     19.95953498	     92.44772152	      6.65155464	    -16.19118750	     35.80222233	     20.06623222	     93.86337513
      1.33333330	     -2.51165820	     -0.69523744	      1.23549382	      0.03765494	      1.29380167	      0.36100967	      1.18012248	      0.39426699	     -1.14038326	      7.04821340	      0.12301453	     12.93548614	      3.60407899	     -7.49999984	     -0.68778115	     -0.37468345	     -0.47653471	      4.29729608	      0.07500197	      7.68893131	     -3.79835201	     -7.49999984	     -1.97109708	     -0.79034554	     -0.74937424	     -2.38157100	    -15.04258904	     24.13427741	     19.58824778	     90.83607106	      7.13248886	    -15.88651613	     36.07684053	     19.49539110	     92.43477534
      1.35000000	     -2.46216640	     -0.71047426	      1.10199824	      0.03762185	      1.29372768	      0.36157323	      1.37265889	      0.39863622	     -1.03481277	      7.44445663	      0.12993028	     12.95413003	      3.45817211	     -7.49999985	     -0.68911858	     -0.39430022	     -0.60780436	      4.50612834	      0.07864678	      7.76117248	     -4.10677868	     -7.49999985	     -2.53834888	     -0.77402266	     -0.72727446	     -2.05992187	    -15.16952879	     24.22746126	     19.91332314	     90.16589899	      7.33705514	    -15.86413819	     36.06712637	     19.69615928	     91.87161876
      1.36666670	     -2.64431324	     -0.72893910	      1.03426847	      0.03805295	      1.29397687	      0.36096041	      1.82886418	      0.39972762	     -0.97256640	      7.87773309	      0.13749238	     12.99289297	      3.44918548	     -7.49999986	     -0.40727773	     -0.43072777	     -0.79450227	      4.76216660	      0.08311549	      7.63160245	     -4.20146412	     -7.49999986	     -2.78944114	     -0.74862293	     -0.71620413	     -1.64328730	    -15.24494299	     24.61713426	     19.58887053	     91.77605007	      7.79784265	    -15.59497253	     35.84884371	     19.05690789	     94.39597255
      1.38333330	     -2.71241822	     -0.76874182	      0.97052528	      0.03814257	      1.29373621	      0.36162975	      2.13273042	      0.43391573	     -0.96429009	      8.25300314	      0.14404208	     13.03203474	      3.48104110	     -7.49999986	     -0.20139832	     -0.49022163	     -0.88734101	      5.03947997	      0.08795552	      7.77137148	     -4.33606378	     -7.49999986	     -3.21170187	     -0.68725439	     -0.74855194	     -1.42093512	    -15.25275161	     24.40445745	     19.54873096	     89.96038024	      8.24193238	    -15.37892527	     35.61072942	     18.82024530	     92.76735282
      1.40000000	     -2.73695120	     -0.79409324	      0.78662497	      0.04610348	      1.28834399	      0.36435423	      2.40650858	      0.47302970	     -0.79441572	      8.74007645	      0.15254311	     13.13095294	      3.32123977	     -7.49999986	     -0.14951130	     -0.51452650	     -0.95778040	      5.22178438	      0.09113733	      7.82899447	     -4.52245363	     -7.49999986	     -3.53985668	     -0.63267129	     -0.64843945	     -1.33867956	    -15.15099127	     23.96825212	     19.41872500	     90.12334994	      8.38255109	    -15.22769931	     35.26113233	     18.57453754	     93.22337497
      1.41666670	     -2.78846216	     -0.79526580	      0.75099589	      0.04648452	      1.29086186	      0.36479846	      2.64288550	      0.46364702	     -0.87511076	      9.16867657	      0.16002359	     13.34173060	      3.46718383	     -7.49999987	     -0.00387343	     -0.54086065	     -0.85067676	      5.50499163	      0.09608023	      7.88163873	     -4.62288752	     -7.49999987	     -3.94863576	     -0.64765181	     -0.65795294	     -1.13430302	    -14.95974613	     23.11085319	     19.04008529	     92.01811847	      8.67657214	    -15.10814947	     34.35943796	     18.23206854	     95.14185714
      1.43333330	     -2.83450730	     -0.79113889	      0.69056004	      0.04696648	      1.29139434	      0.36412051	      2.90655245	      0.45291005	     -0.85350036	      9.65679084	      0.16854280	     13.55610713	      3.38709550	     -7.49999987	      0.10625325	     -0.55004712	     -0.74637949	      5.77470013	      0.10078753	      7.93099028	     -4.79178261	     -7.49999987	     -4.34950128	     -0.58353411	     -0.84991947	     -0.63459246	    -14.69556163	     23.04105181	     18.38931690	     89.70480448	      8.95581690	    -14.96784841	     34.46890190	     17.66649214	     92.98105360
      1.45000000	     -2.84394993	     -0.76118664	      0.58231727	      0.04663973	      1.28869950	      0.36494482	      3.13629672	      0.42522606	     -0.75169541	     10.13034001	      0.17680779	     13.67564185	      3.15086936	     -7.49999987	      0.21212136	     -0.52931724	     -0.68960668	      6.04223383	      0.10545687	      7.95800179	     -4.96111410	     -7.49999987	     -4.98483757	     -0.50242247	     -1.00580189	     -0.17956438	    -14.72204473	     22.90938729	     18.80031466	     88.36119647	      9.07491697	    -15.05984790	     34.43217845	     17.91101635	     91.71664175
      1.46666670	     -3.08849557	     -0.70415415	      0.59629761	      0.04729565	      1.28586975	      0.36423993	      3.66864688	      0.33459523	     -0.77145239	     10.74854045	      0.18759742	     13.99503212	      3.03106319	     -7.49999987	      0.62452533	     -0.47700615	     -0.79382684	      6.44413441	      0.11247136	      8.00767727	     -5.01116607	     -7.49999987	     -5.22864501	     -0.47977419	     -1.27857912	      0.49672290	    -14.49733523	     22.05264708	     17.97282574	     91.29461618	      9.40191568	    -15.00333345	     34.30296272	     17.23865287	     94.46747068
      1.48333330	     -3.15127004	     -0.70167947	      0.62285480	      0.06341123	      1.28873489	      0.36464151	      3.72477563	      0.30096486	     -0.72033548	     11.08645418	      0.19349513	     14.25506311	      2.92002289	     -7.49999987	      0.57202546	     -0.49502052	     -1.02867680	      6.59905748	      0.11517528	      7.63300588	     -5.37191373	     -7.49999987	     -5.63855470	     -0.33284964	     -1.46171478	      0.77055100	    -14.35743574	     21.56657754	     18.10166768	     91.12855842	      9.17181624	    -14.95171070	     33.75271733	     17.26796242	     94.24967666
      1.50000000	     -3.23081882	     -0.64876951	      0.72839412	      0.06378979	      1.28647531	      0.36384678	      3.77728935	      0.22749894	     -0.77037520	     11.34928351	      0.19808236	     14.58439888	      2.91991016	     -7.49999987	      0.67557219	     -0.45839569	     -1.16006193	      6.87581551	      0.12000562	      7.59722166	     -5.53278481	     -7.49999987	     -6.02679363	     -0.29919594	     -1.70430255	      1.48309262	    -14.28333126	     21.76007104	     18.22327268	     89.76701337	      9.15406186	    -14.94632176	     34.14592174	     17.03030968	     92.74353099
      1.51666670	     -3.29282671	     -0.60981978	      0.92414553	      0.06384961	      1.28624353	      0.36430110	      3.89288259	      0.18292526	     -0.62955261	     11.80346253	      0.20600928	     14.94105535	      2.72962202	     -7.49999987	      0.81596286	     -0.44982710	     -1.17741487	      7.28202229	      0.12709527	      7.60660186	     -5.71449657	     -7.49999987	     -6.65492587	     -0.23018509	     -1.87901017	      2.16480145	    -14.36410506	     21.67564980	     19.21211759	     88.27181706	      9.05979102	    -15.11837372	     34.13114890	     17.48977202	     91.32701194
      1.53333330	     -3.39244451	     -0.54565689	      1.09872219	      0.07140137	      1.28395145	      0.36054312	      4.00675245	      0.08215916	     -0.68017742	     12.31397803	      0.21491946	     15.26417410	      2.51511064	     -7.49999987	      0.97881118	     -0.40490759	     -1.34998774	      7.85620105	      0.13711658	      7.41123825	     -5.77730098	     -7.49999987	     -7.11860497	     -0.12275126	     -1.78367059	      3.05059714	    -14.50566671	     21.63056495	     19.36342600	     88.32110231	      9.10767344	    -14.99663410	     34.19080008	     17.33303863	     91.39552590
